<mxfile host="65bd71144e" pages="2">
    <diagram name="Page-1" id="e56a1550-8fbb-45ad-956c-1786394a9013">
        <mxGraphModel dx="266" dy="545" grid="1" gridSize="10" guides="1" tooltips="1" connect="1" arrows="1" fold="1" page="1" pageScale="1" pageWidth="1100" pageHeight="850" background="#ffffff" math="0" shadow="0">
            <root>
                <mxCell id="0"/>
                <mxCell id="1" parent="0"/>
                <mxCell id="hn2WC1Tq35djOOzGHUu2-1" value="BaseEntity" style="swimlane;fontStyle=0;childLayout=stackLayout;horizontal=1;startSize=26;horizontalStack=0;resizeParent=1;resizeParentMax=0;resizeLast=0;collapsible=1;marginBottom=0;align=center;fontSize=14;" parent="1" vertex="1">
                    <mxGeometry x="110" y="140" width="160" height="144" as="geometry"/>
                </mxCell>
                <mxCell id="hn2WC1Tq35djOOzGHUu2-2" value="Id" style="shape=partialRectangle;top=0;left=0;right=0;bottom=1;align=left;verticalAlign=middle;fillColor=none;spacingLeft=34;spacingRight=4;overflow=hidden;rotatable=0;points=[[0,0.5],[1,0.5]];portConstraint=eastwest;dropTarget=0;fontStyle=5;fontSize=12;" parent="hn2WC1Tq35djOOzGHUu2-1" vertex="1">
                    <mxGeometry y="26" width="160" height="30" as="geometry"/>
                </mxCell>
                <mxCell id="hn2WC1Tq35djOOzGHUu2-3" value="PK" style="shape=partialRectangle;top=0;left=0;bottom=0;fillColor=none;align=left;verticalAlign=middle;spacingLeft=4;spacingRight=4;overflow=hidden;rotatable=0;points=[];portConstraint=eastwest;part=1;fontSize=12;" parent="hn2WC1Tq35djOOzGHUu2-2" vertex="1" connectable="0">
                    <mxGeometry width="30" height="30" as="geometry"/>
                </mxCell>
                <mxCell id="hn2WC1Tq35djOOzGHUu2-4" value="CreationDate" style="shape=partialRectangle;top=0;left=0;right=0;bottom=0;align=left;verticalAlign=top;fillColor=none;spacingLeft=34;spacingRight=4;overflow=hidden;rotatable=0;points=[[0,0.5],[1,0.5]];portConstraint=eastwest;dropTarget=0;fontSize=12;" parent="hn2WC1Tq35djOOzGHUu2-1" vertex="1">
                    <mxGeometry y="56" width="160" height="26" as="geometry"/>
                </mxCell>
                <mxCell id="hn2WC1Tq35djOOzGHUu2-5" value="" style="shape=partialRectangle;top=0;left=0;bottom=0;fillColor=none;align=left;verticalAlign=top;spacingLeft=4;spacingRight=4;overflow=hidden;rotatable=0;points=[];portConstraint=eastwest;part=1;fontSize=12;" parent="hn2WC1Tq35djOOzGHUu2-4" vertex="1" connectable="0">
                    <mxGeometry width="30" height="26" as="geometry"/>
                </mxCell>
                <mxCell id="hn2WC1Tq35djOOzGHUu2-6" value="ModifyDate" style="shape=partialRectangle;top=0;left=0;right=0;bottom=0;align=left;verticalAlign=top;fillColor=none;spacingLeft=34;spacingRight=4;overflow=hidden;rotatable=0;points=[[0,0.5],[1,0.5]];portConstraint=eastwest;dropTarget=0;fontSize=12;" parent="hn2WC1Tq35djOOzGHUu2-1" vertex="1">
                    <mxGeometry y="82" width="160" height="26" as="geometry"/>
                </mxCell>
                <mxCell id="hn2WC1Tq35djOOzGHUu2-7" value="" style="shape=partialRectangle;top=0;left=0;bottom=0;fillColor=none;align=left;verticalAlign=top;spacingLeft=4;spacingRight=4;overflow=hidden;rotatable=0;points=[];portConstraint=eastwest;part=1;fontSize=12;" parent="hn2WC1Tq35djOOzGHUu2-6" vertex="1" connectable="0">
                    <mxGeometry width="30" height="26" as="geometry"/>
                </mxCell>
                <mxCell id="hn2WC1Tq35djOOzGHUu2-8" value="row 3" style="shape=partialRectangle;top=0;left=0;right=0;bottom=0;align=left;verticalAlign=top;fillColor=none;spacingLeft=34;spacingRight=4;overflow=hidden;rotatable=0;points=[[0,0.5],[1,0.5]];portConstraint=eastwest;dropTarget=0;fontSize=12;" parent="hn2WC1Tq35djOOzGHUu2-1" vertex="1">
                    <mxGeometry y="108" width="160" height="26" as="geometry"/>
                </mxCell>
                <mxCell id="hn2WC1Tq35djOOzGHUu2-9" value="" style="shape=partialRectangle;top=0;left=0;bottom=0;fillColor=none;align=left;verticalAlign=top;spacingLeft=4;spacingRight=4;overflow=hidden;rotatable=0;points=[];portConstraint=eastwest;part=1;fontSize=12;" parent="hn2WC1Tq35djOOzGHUu2-8" vertex="1" connectable="0">
                    <mxGeometry width="30" height="26" as="geometry"/>
                </mxCell>
                <mxCell id="hn2WC1Tq35djOOzGHUu2-10" value="" style="shape=partialRectangle;top=0;left=0;right=0;bottom=0;align=left;verticalAlign=top;fillColor=none;spacingLeft=34;spacingRight=4;overflow=hidden;rotatable=0;points=[[0,0.5],[1,0.5]];portConstraint=eastwest;dropTarget=0;fontSize=12;" parent="hn2WC1Tq35djOOzGHUu2-1" vertex="1">
                    <mxGeometry y="134" width="160" height="10" as="geometry"/>
                </mxCell>
                <mxCell id="hn2WC1Tq35djOOzGHUu2-11" value="" style="shape=partialRectangle;top=0;left=0;bottom=0;fillColor=none;align=left;verticalAlign=top;spacingLeft=4;spacingRight=4;overflow=hidden;rotatable=0;points=[];portConstraint=eastwest;part=1;fontSize=12;" parent="hn2WC1Tq35djOOzGHUu2-10" vertex="1" connectable="0">
                    <mxGeometry width="30" height="10" as="geometry"/>
                </mxCell>
            </root>
        </mxGraphModel>
    </diagram>
    <diagram id="tx5fsSjjgZIaETfuWHIu" name="Page-2">
        <mxGraphModel dx="266" dy="545" grid="1" gridSize="10" guides="1" tooltips="1" connect="1" arrows="1" fold="1" page="1" pageScale="1" pageWidth="850" pageHeight="1100" math="0" shadow="0">
            <root>
                <mxCell id="dZb9Hb1LmjK9rrr_tgIO-0"/>
                <mxCell id="dZb9Hb1LmjK9rrr_tgIO-1" parent="dZb9Hb1LmjK9rrr_tgIO-0"/>
                <mxCell id="dZb9Hb1LmjK9rrr_tgIO-5" value="BaseEntity" style="swimlane;fontStyle=1;childLayout=stackLayout;horizontal=1;startSize=26;fillColor=none;horizontalStack=0;resizeParent=1;resizeParentMax=0;resizeLast=0;collapsible=1;marginBottom=0;" parent="dZb9Hb1LmjK9rrr_tgIO-1" vertex="1">
                    <mxGeometry x="330" y="140" width="140" height="156" as="geometry"/>
                </mxCell>
                <mxCell id="dZb9Hb1LmjK9rrr_tgIO-6" value="Id:Guid" style="text;strokeColor=none;fillColor=none;align=left;verticalAlign=top;spacingLeft=4;spacingRight=4;overflow=hidden;rotatable=0;points=[[0,0.5],[1,0.5]];portConstraint=eastwest;" parent="dZb9Hb1LmjK9rrr_tgIO-5" vertex="1">
                    <mxGeometry y="26" width="140" height="26" as="geometry"/>
                </mxCell>
                <mxCell id="dZb9Hb1LmjK9rrr_tgIO-10" value="CreationDate:DateTime" style="text;strokeColor=none;fillColor=none;align=left;verticalAlign=top;spacingLeft=4;spacingRight=4;overflow=hidden;rotatable=0;points=[[0,0.5],[1,0.5]];portConstraint=eastwest;" parent="dZb9Hb1LmjK9rrr_tgIO-5" vertex="1">
                    <mxGeometry y="52" width="140" height="26" as="geometry"/>
                </mxCell>
                <mxCell id="dZb9Hb1LmjK9rrr_tgIO-11" value="ModifyDate:DateTime" style="text;strokeColor=none;fillColor=none;align=left;verticalAlign=top;spacingLeft=4;spacingRight=4;overflow=hidden;rotatable=0;points=[[0,0.5],[1,0.5]];portConstraint=eastwest;" parent="dZb9Hb1LmjK9rrr_tgIO-5" vertex="1">
                    <mxGeometry y="78" width="140" height="26" as="geometry"/>
                </mxCell>
                <mxCell id="dZb9Hb1LmjK9rrr_tgIO-12" value="IsActive:boolean" style="text;strokeColor=none;fillColor=none;align=left;verticalAlign=top;spacingLeft=4;spacingRight=4;overflow=hidden;rotatable=0;points=[[0,0.5],[1,0.5]];portConstraint=eastwest;" parent="dZb9Hb1LmjK9rrr_tgIO-5" vertex="1">
                    <mxGeometry y="104" width="140" height="26" as="geometry"/>
                </mxCell>
                <mxCell id="dZb9Hb1LmjK9rrr_tgIO-13" value="IsDeleted:boolean" style="text;strokeColor=none;fillColor=none;align=left;verticalAlign=top;spacingLeft=4;spacingRight=4;overflow=hidden;rotatable=0;points=[[0,0.5],[1,0.5]];portConstraint=eastwest;" parent="dZb9Hb1LmjK9rrr_tgIO-5" vertex="1">
                    <mxGeometry y="130" width="140" height="26" as="geometry"/>
                </mxCell>
                <mxCell id="dZb9Hb1LmjK9rrr_tgIO-49" value="BaseWriter:BaseEntity" style="swimlane;fontStyle=0;childLayout=stackLayout;horizontal=1;startSize=26;fillColor=none;horizontalStack=0;resizeParent=1;resizeParentMax=0;resizeLast=0;collapsible=1;marginBottom=0;align=center;" parent="dZb9Hb1LmjK9rrr_tgIO-1" vertex="1">
                    <mxGeometry x="530" y="472" width="140" height="104" as="geometry"/>
                </mxCell>
                <mxCell id="dZb9Hb1LmjK9rrr_tgIO-53" value="Name:string" style="text;strokeColor=none;fillColor=none;align=left;verticalAlign=top;spacingLeft=4;spacingRight=4;overflow=hidden;rotatable=0;points=[[0,0.5],[1,0.5]];portConstraint=eastwest;" parent="dZb9Hb1LmjK9rrr_tgIO-49" vertex="1">
                    <mxGeometry y="26" width="140" height="26" as="geometry"/>
                </mxCell>
                <mxCell id="dZb9Hb1LmjK9rrr_tgIO-54" value="SurName:string" style="text;strokeColor=none;fillColor=none;align=left;verticalAlign=top;spacingLeft=4;spacingRight=4;overflow=hidden;rotatable=0;points=[[0,0.5],[1,0.5]];portConstraint=eastwest;" parent="dZb9Hb1LmjK9rrr_tgIO-49" vertex="1">
                    <mxGeometry y="52" width="140" height="26" as="geometry"/>
                </mxCell>
                <mxCell id="dZb9Hb1LmjK9rrr_tgIO-55" value="Biography:string" style="text;strokeColor=none;fillColor=none;align=left;verticalAlign=top;spacingLeft=4;spacingRight=4;overflow=hidden;rotatable=0;points=[[0,0.5],[1,0.5]];portConstraint=eastwest;" parent="dZb9Hb1LmjK9rrr_tgIO-49" vertex="1">
                    <mxGeometry y="78" width="140" height="26" as="geometry"/>
                </mxCell>
                <mxCell id="dZb9Hb1LmjK9rrr_tgIO-41" value="Translator:BaseWriter" style="swimlane;fontStyle=0;childLayout=stackLayout;horizontal=1;startSize=26;fillColor=none;horizontalStack=0;resizeParent=1;resizeParentMax=0;resizeLast=0;collapsible=1;marginBottom=0;align=center;" parent="dZb9Hb1LmjK9rrr_tgIO-1" vertex="1">
                    <mxGeometry x="690" y="472" width="140" height="34" as="geometry"/>
                </mxCell>
                <mxCell id="dZb9Hb1LmjK9rrr_tgIO-45" value="Author:BaseWriter" style="swimlane;fontStyle=0;childLayout=stackLayout;horizontal=1;startSize=26;fillColor=none;horizontalStack=0;resizeParent=1;resizeParentMax=0;resizeLast=0;collapsible=1;marginBottom=0;align=center;" parent="dZb9Hb1LmjK9rrr_tgIO-1" vertex="1">
                    <mxGeometry x="690" y="516" width="140" height="34" as="geometry"/>
                </mxCell>
                <mxCell id="dZb9Hb1LmjK9rrr_tgIO-56" value="BooksAuthor" style="swimlane;fontStyle=0;childLayout=stackLayout;horizontal=1;startSize=26;fillColor=none;horizontalStack=0;resizeParent=1;resizeParentMax=0;resizeLast=0;collapsible=1;marginBottom=0;align=center;" parent="dZb9Hb1LmjK9rrr_tgIO-1" vertex="1">
                    <mxGeometry x="690" y="566" width="140" height="78" as="geometry"/>
                </mxCell>
                <mxCell id="dZb9Hb1LmjK9rrr_tgIO-57" value="BooksId" style="text;strokeColor=none;fillColor=none;align=left;verticalAlign=top;spacingLeft=4;spacingRight=4;overflow=hidden;rotatable=0;points=[[0,0.5],[1,0.5]];portConstraint=eastwest;" parent="dZb9Hb1LmjK9rrr_tgIO-56" vertex="1">
                    <mxGeometry y="26" width="140" height="26" as="geometry"/>
                </mxCell>
                <mxCell id="dZb9Hb1LmjK9rrr_tgIO-58" value="AuthorId" style="text;strokeColor=none;fillColor=none;align=left;verticalAlign=top;spacingLeft=4;spacingRight=4;overflow=hidden;rotatable=0;points=[[0,0.5],[1,0.5]];portConstraint=eastwest;" parent="dZb9Hb1LmjK9rrr_tgIO-56" vertex="1">
                    <mxGeometry y="52" width="140" height="26" as="geometry"/>
                </mxCell>
                <mxCell id="dZb9Hb1LmjK9rrr_tgIO-28" value="Books:BaseEntity" style="swimlane;fontStyle=0;childLayout=stackLayout;horizontal=1;startSize=26;fillColor=none;horizontalStack=0;resizeParent=1;resizeParentMax=0;resizeLast=0;collapsible=1;marginBottom=0;align=center;" parent="dZb9Hb1LmjK9rrr_tgIO-1" vertex="1">
                    <mxGeometry x="700" y="710" width="140" height="182" as="geometry"/>
                </mxCell>
                <mxCell id="dZb9Hb1LmjK9rrr_tgIO-30" value="ISBN:string" style="text;strokeColor=none;fillColor=none;align=left;verticalAlign=top;spacingLeft=4;spacingRight=4;overflow=hidden;rotatable=0;points=[[0,0.5],[1,0.5]];portConstraint=eastwest;" parent="dZb9Hb1LmjK9rrr_tgIO-28" vertex="1">
                    <mxGeometry y="26" width="140" height="26" as="geometry"/>
                </mxCell>
                <mxCell id="dZb9Hb1LmjK9rrr_tgIO-31" value="Name:string" style="text;strokeColor=none;fillColor=none;align=left;verticalAlign=top;spacingLeft=4;spacingRight=4;overflow=hidden;rotatable=0;points=[[0,0.5],[1,0.5]];portConstraint=eastwest;" parent="dZb9Hb1LmjK9rrr_tgIO-28" vertex="1">
                    <mxGeometry y="52" width="140" height="26" as="geometry"/>
                </mxCell>
                <mxCell id="dZb9Hb1LmjK9rrr_tgIO-34" value="OrginalName:string" style="text;strokeColor=none;fillColor=none;align=left;verticalAlign=top;spacingLeft=4;spacingRight=4;overflow=hidden;rotatable=0;points=[[0,0.5],[1,0.5]];portConstraint=eastwest;" parent="dZb9Hb1LmjK9rrr_tgIO-28" vertex="1">
                    <mxGeometry y="78" width="140" height="26" as="geometry"/>
                </mxCell>
                <mxCell id="dZb9Hb1LmjK9rrr_tgIO-32" value="Descriptions:string" style="text;strokeColor=none;fillColor=none;align=left;verticalAlign=top;spacingLeft=4;spacingRight=4;overflow=hidden;rotatable=0;points=[[0,0.5],[1,0.5]];portConstraint=eastwest;" parent="dZb9Hb1LmjK9rrr_tgIO-28" vertex="1">
                    <mxGeometry y="104" width="140" height="26" as="geometry"/>
                </mxCell>
                <mxCell id="dZb9Hb1LmjK9rrr_tgIO-33" value="Language:string" style="text;strokeColor=none;fillColor=none;align=left;verticalAlign=top;spacingLeft=4;spacingRight=4;overflow=hidden;rotatable=0;points=[[0,0.5],[1,0.5]];portConstraint=eastwest;" parent="dZb9Hb1LmjK9rrr_tgIO-28" vertex="1">
                    <mxGeometry y="130" width="140" height="26" as="geometry"/>
                </mxCell>
                <mxCell id="dZb9Hb1LmjK9rrr_tgIO-76" value="PublishDate:DateTime" style="text;strokeColor=none;fillColor=none;align=left;verticalAlign=top;spacingLeft=4;spacingRight=4;overflow=hidden;rotatable=0;points=[[0,0.5],[1,0.5]];portConstraint=eastwest;" parent="dZb9Hb1LmjK9rrr_tgIO-28" vertex="1">
                    <mxGeometry y="156" width="140" height="26" as="geometry"/>
                </mxCell>
                <mxCell id="dZb9Hb1LmjK9rrr_tgIO-63" value="Publisher:BaseEntity" style="swimlane;fontStyle=0;childLayout=stackLayout;horizontal=1;startSize=26;fillColor=none;horizontalStack=0;resizeParent=1;resizeParentMax=0;resizeLast=0;collapsible=1;marginBottom=0;align=center;" parent="dZb9Hb1LmjK9rrr_tgIO-1" vertex="1">
                    <mxGeometry x="525" y="690" width="140" height="104" as="geometry"/>
                </mxCell>
                <mxCell id="dZb9Hb1LmjK9rrr_tgIO-64" value="Name:string" style="text;strokeColor=none;fillColor=none;align=left;verticalAlign=top;spacingLeft=4;spacingRight=4;overflow=hidden;rotatable=0;points=[[0,0.5],[1,0.5]];portConstraint=eastwest;" parent="dZb9Hb1LmjK9rrr_tgIO-63" vertex="1">
                    <mxGeometry y="26" width="140" height="26" as="geometry"/>
                </mxCell>
                <mxCell id="dZb9Hb1LmjK9rrr_tgIO-66" value="GLN:string" style="text;strokeColor=none;fillColor=none;align=left;verticalAlign=top;spacingLeft=4;spacingRight=4;overflow=hidden;rotatable=0;points=[[0,0.5],[1,0.5]];portConstraint=eastwest;" parent="dZb9Hb1LmjK9rrr_tgIO-63" vertex="1">
                    <mxGeometry y="52" width="140" height="26" as="geometry"/>
                </mxCell>
                <mxCell id="dZb9Hb1LmjK9rrr_tgIO-67" value="PhoneNumber:string" style="text;strokeColor=none;fillColor=none;align=left;verticalAlign=top;spacingLeft=4;spacingRight=4;overflow=hidden;rotatable=0;points=[[0,0.5],[1,0.5]];portConstraint=eastwest;" parent="dZb9Hb1LmjK9rrr_tgIO-63" vertex="1">
                    <mxGeometry y="78" width="140" height="26" as="geometry"/>
                </mxCell>
                <mxCell id="dZb9Hb1LmjK9rrr_tgIO-90" value="Categories:BaseEntity" style="swimlane;fontStyle=0;childLayout=stackLayout;horizontal=1;startSize=26;fillColor=none;horizontalStack=0;resizeParent=1;resizeParentMax=0;resizeLast=0;collapsible=1;marginBottom=0;align=center;" parent="dZb9Hb1LmjK9rrr_tgIO-1" vertex="1">
                    <mxGeometry x="330" y="472" width="140" height="104" as="geometry"/>
                </mxCell>
                <mxCell id="dZb9Hb1LmjK9rrr_tgIO-91" value="Name:string" style="text;strokeColor=none;fillColor=none;align=left;verticalAlign=top;spacingLeft=4;spacingRight=4;overflow=hidden;rotatable=0;points=[[0,0.5],[1,0.5]];portConstraint=eastwest;" parent="dZb9Hb1LmjK9rrr_tgIO-90" vertex="1">
                    <mxGeometry y="26" width="140" height="26" as="geometry"/>
                </mxCell>
                <mxCell id="dZb9Hb1LmjK9rrr_tgIO-92" value="Description:string" style="text;strokeColor=none;fillColor=none;align=left;verticalAlign=top;spacingLeft=4;spacingRight=4;overflow=hidden;rotatable=0;points=[[0,0.5],[1,0.5]];portConstraint=eastwest;" parent="dZb9Hb1LmjK9rrr_tgIO-90" vertex="1">
                    <mxGeometry y="52" width="140" height="26" as="geometry"/>
                </mxCell>
                <mxCell id="dZb9Hb1LmjK9rrr_tgIO-93" value="CategoryId:Guid" style="text;strokeColor=none;fillColor=none;align=left;verticalAlign=top;spacingLeft=4;spacingRight=4;overflow=hidden;rotatable=0;points=[[0,0.5],[1,0.5]];portConstraint=eastwest;" parent="dZb9Hb1LmjK9rrr_tgIO-90" vertex="1">
                    <mxGeometry y="78" width="140" height="26" as="geometry"/>
                </mxCell>
                <mxCell id="dZb9Hb1LmjK9rrr_tgIO-60" value="BooksSKUTranslator" style="swimlane;fontStyle=0;childLayout=stackLayout;horizontal=1;startSize=26;fillColor=none;horizontalStack=0;resizeParent=1;resizeParentMax=0;resizeLast=0;collapsible=1;marginBottom=0;align=center;" parent="dZb9Hb1LmjK9rrr_tgIO-1" vertex="1">
                    <mxGeometry x="515" y="590" width="150" height="78" as="geometry"/>
                </mxCell>
                <mxCell id="dZb9Hb1LmjK9rrr_tgIO-61" value="BookSKUId" style="text;strokeColor=none;fillColor=none;align=left;verticalAlign=top;spacingLeft=4;spacingRight=4;overflow=hidden;rotatable=0;points=[[0,0.5],[1,0.5]];portConstraint=eastwest;" parent="dZb9Hb1LmjK9rrr_tgIO-60" vertex="1">
                    <mxGeometry y="26" width="150" height="26" as="geometry"/>
                </mxCell>
                <mxCell id="dZb9Hb1LmjK9rrr_tgIO-62" value="TranslatorId" style="text;strokeColor=none;fillColor=none;align=left;verticalAlign=top;spacingLeft=4;spacingRight=4;overflow=hidden;rotatable=0;points=[[0,0.5],[1,0.5]];portConstraint=eastwest;" parent="dZb9Hb1LmjK9rrr_tgIO-60" vertex="1">
                    <mxGeometry y="52" width="150" height="26" as="geometry"/>
                </mxCell>
                <mxCell id="dZb9Hb1LmjK9rrr_tgIO-14" value="User : BaseEntity" style="swimlane;fontStyle=1;childLayout=stackLayout;horizontal=1;startSize=26;fillColor=none;horizontalStack=0;resizeParent=1;resizeParentMax=0;resizeLast=0;collapsible=1;marginBottom=0;" parent="dZb9Hb1LmjK9rrr_tgIO-1" vertex="1">
                    <mxGeometry x="330" y="590" width="140" height="78" as="geometry"/>
                </mxCell>
                <mxCell id="dZb9Hb1LmjK9rrr_tgIO-21" value="Name:string" style="text;strokeColor=none;fillColor=none;align=left;verticalAlign=top;spacingLeft=4;spacingRight=4;overflow=hidden;rotatable=0;points=[[0,0.5],[1,0.5]];portConstraint=eastwest;" parent="dZb9Hb1LmjK9rrr_tgIO-14" vertex="1">
                    <mxGeometry y="26" width="140" height="26" as="geometry"/>
                </mxCell>
                <mxCell id="dZb9Hb1LmjK9rrr_tgIO-25" value="Surname:string" style="text;strokeColor=none;fillColor=none;align=left;verticalAlign=top;spacingLeft=4;spacingRight=4;overflow=hidden;rotatable=0;points=[[0,0.5],[1,0.5]];portConstraint=eastwest;" parent="dZb9Hb1LmjK9rrr_tgIO-14" vertex="1">
                    <mxGeometry y="52" width="140" height="26" as="geometry"/>
                </mxCell>
                <mxCell id="dZb9Hb1LmjK9rrr_tgIO-94" value="UserBookSKU:BaseEntity" style="swimlane;fontStyle=0;childLayout=stackLayout;horizontal=1;startSize=26;fillColor=none;horizontalStack=0;resizeParent=1;resizeParentMax=0;resizeLast=0;collapsible=1;marginBottom=0;align=center;" parent="dZb9Hb1LmjK9rrr_tgIO-1" vertex="1">
                    <mxGeometry x="330" y="680" width="140" height="208" as="geometry"/>
                </mxCell>
                <mxCell id="dZb9Hb1LmjK9rrr_tgIO-95" value="UserId:guid" style="text;strokeColor=none;fillColor=none;align=left;verticalAlign=top;spacingLeft=4;spacingRight=4;overflow=hidden;rotatable=0;points=[[0,0.5],[1,0.5]];portConstraint=eastwest;" parent="dZb9Hb1LmjK9rrr_tgIO-94" vertex="1">
                    <mxGeometry y="26" width="140" height="26" as="geometry"/>
                </mxCell>
                <mxCell id="dZb9Hb1LmjK9rrr_tgIO-98" value="BookSKUId:guid" style="text;strokeColor=none;fillColor=none;align=left;verticalAlign=top;spacingLeft=4;spacingRight=4;overflow=hidden;rotatable=0;points=[[0,0.5],[1,0.5]];portConstraint=eastwest;" parent="dZb9Hb1LmjK9rrr_tgIO-94" vertex="1">
                    <mxGeometry y="52" width="140" height="26" as="geometry"/>
                </mxCell>
                <mxCell id="dZb9Hb1LmjK9rrr_tgIO-99" value="LibarianNote:string" style="text;strokeColor=none;fillColor=none;align=left;verticalAlign=top;spacingLeft=4;spacingRight=4;overflow=hidden;rotatable=0;points=[[0,0.5],[1,0.5]];portConstraint=eastwest;" parent="dZb9Hb1LmjK9rrr_tgIO-94" vertex="1">
                    <mxGeometry y="78" width="140" height="26" as="geometry"/>
                </mxCell>
                <mxCell id="dZb9Hb1LmjK9rrr_tgIO-100" value="CheckedOut:DateTime" style="text;strokeColor=none;fillColor=none;align=left;verticalAlign=top;spacingLeft=4;spacingRight=4;overflow=hidden;rotatable=0;points=[[0,0.5],[1,0.5]];portConstraint=eastwest;" parent="dZb9Hb1LmjK9rrr_tgIO-94" vertex="1">
                    <mxGeometry y="104" width="140" height="26" as="geometry"/>
                </mxCell>
                <mxCell id="dZb9Hb1LmjK9rrr_tgIO-101" value="Delay:int" style="text;strokeColor=none;fillColor=none;align=left;verticalAlign=top;spacingLeft=4;spacingRight=4;overflow=hidden;rotatable=0;points=[[0,0.5],[1,0.5]];portConstraint=eastwest;" parent="dZb9Hb1LmjK9rrr_tgIO-94" vertex="1">
                    <mxGeometry y="130" width="140" height="26" as="geometry"/>
                </mxCell>
                <mxCell id="dZb9Hb1LmjK9rrr_tgIO-102" value="Fine:double" style="text;strokeColor=none;fillColor=none;align=left;verticalAlign=top;spacingLeft=4;spacingRight=4;overflow=hidden;rotatable=0;points=[[0,0.5],[1,0.5]];portConstraint=eastwest;" parent="dZb9Hb1LmjK9rrr_tgIO-94" vertex="1">
                    <mxGeometry y="156" width="140" height="26" as="geometry"/>
                </mxCell>
                <mxCell id="dZb9Hb1LmjK9rrr_tgIO-107" value="HealtState:string" style="text;strokeColor=none;fillColor=none;align=left;verticalAlign=top;spacingLeft=4;spacingRight=4;overflow=hidden;rotatable=0;points=[[0,0.5],[1,0.5]];portConstraint=eastwest;" parent="dZb9Hb1LmjK9rrr_tgIO-94" vertex="1">
                    <mxGeometry y="182" width="140" height="26" as="geometry"/>
                </mxCell>
                <mxCell id="dZb9Hb1LmjK9rrr_tgIO-36" value="BookStockKeepingUnit&#10;:BaseEntity" style="swimlane;fontStyle=0;childLayout=stackLayout;horizontal=1;startSize=36;fillColor=none;horizontalStack=0;resizeParent=1;resizeParentMax=0;resizeLast=0;collapsible=1;marginBottom=0;align=center;" parent="dZb9Hb1LmjK9rrr_tgIO-1" vertex="1">
                    <mxGeometry x="150" y="506" width="140" height="348" as="geometry"/>
                </mxCell>
                <mxCell id="dZb9Hb1LmjK9rrr_tgIO-37" value="BooksId:guid" style="text;strokeColor=none;fillColor=none;align=left;verticalAlign=top;spacingLeft=4;spacingRight=4;overflow=hidden;rotatable=0;points=[[0,0.5],[1,0.5]];portConstraint=eastwest;" parent="dZb9Hb1LmjK9rrr_tgIO-36" vertex="1">
                    <mxGeometry y="36" width="140" height="26" as="geometry"/>
                </mxCell>
                <mxCell id="dZb9Hb1LmjK9rrr_tgIO-38" value="PublisherId:guid" style="text;strokeColor=none;fillColor=none;align=left;verticalAlign=top;spacingLeft=4;spacingRight=4;overflow=hidden;rotatable=0;points=[[0,0.5],[1,0.5]];portConstraint=eastwest;" parent="dZb9Hb1LmjK9rrr_tgIO-36" vertex="1">
                    <mxGeometry y="62" width="140" height="26" as="geometry"/>
                </mxCell>
                <mxCell id="dZb9Hb1LmjK9rrr_tgIO-39" value="PageCount:int" style="text;strokeColor=none;fillColor=none;align=left;verticalAlign=top;spacingLeft=4;spacingRight=4;overflow=hidden;rotatable=0;points=[[0,0.5],[1,0.5]];portConstraint=eastwest;" parent="dZb9Hb1LmjK9rrr_tgIO-36" vertex="1">
                    <mxGeometry y="88" width="140" height="26" as="geometry"/>
                </mxCell>
                <mxCell id="dZb9Hb1LmjK9rrr_tgIO-68" value="VolumeType:string" style="text;strokeColor=none;fillColor=none;align=left;verticalAlign=top;spacingLeft=4;spacingRight=4;overflow=hidden;rotatable=0;points=[[0,0.5],[1,0.5]];portConstraint=eastwest;" parent="dZb9Hb1LmjK9rrr_tgIO-36" vertex="1">
                    <mxGeometry y="114" width="140" height="26" as="geometry"/>
                </mxCell>
                <mxCell id="dZb9Hb1LmjK9rrr_tgIO-69" value="PaperType:string" style="text;strokeColor=none;fillColor=none;align=left;verticalAlign=top;spacingLeft=4;spacingRight=4;overflow=hidden;rotatable=0;points=[[0,0.5],[1,0.5]];portConstraint=eastwest;" parent="dZb9Hb1LmjK9rrr_tgIO-36" vertex="1">
                    <mxGeometry y="140" width="140" height="26" as="geometry"/>
                </mxCell>
                <mxCell id="dZb9Hb1LmjK9rrr_tgIO-70" value="Size:string" style="text;strokeColor=none;fillColor=none;align=left;verticalAlign=top;spacingLeft=4;spacingRight=4;overflow=hidden;rotatable=0;points=[[0,0.5],[1,0.5]];portConstraint=eastwest;" parent="dZb9Hb1LmjK9rrr_tgIO-36" vertex="1">
                    <mxGeometry y="166" width="140" height="26" as="geometry"/>
                </mxCell>
                <mxCell id="dZb9Hb1LmjK9rrr_tgIO-72" value="BuyingPrice:double" style="text;strokeColor=none;fillColor=none;align=left;verticalAlign=top;spacingLeft=4;spacingRight=4;overflow=hidden;rotatable=0;points=[[0,0.5],[1,0.5]];portConstraint=eastwest;" parent="dZb9Hb1LmjK9rrr_tgIO-36" vertex="1">
                    <mxGeometry y="192" width="140" height="26" as="geometry"/>
                </mxCell>
                <mxCell id="dZb9Hb1LmjK9rrr_tgIO-73" value="CurrencyCode:double" style="text;strokeColor=none;fillColor=none;align=left;verticalAlign=top;spacingLeft=4;spacingRight=4;overflow=hidden;rotatable=0;points=[[0,0.5],[1,0.5]];portConstraint=eastwest;" parent="dZb9Hb1LmjK9rrr_tgIO-36" vertex="1">
                    <mxGeometry y="218" width="140" height="26" as="geometry"/>
                </mxCell>
                <mxCell id="dZb9Hb1LmjK9rrr_tgIO-75" value="PublishDate:DateTime" style="text;strokeColor=none;fillColor=none;align=left;verticalAlign=top;spacingLeft=4;spacingRight=4;overflow=hidden;rotatable=0;points=[[0,0.5],[1,0.5]];portConstraint=eastwest;" parent="dZb9Hb1LmjK9rrr_tgIO-36" vertex="1">
                    <mxGeometry y="244" width="140" height="26" as="geometry"/>
                </mxCell>
                <mxCell id="dZb9Hb1LmjK9rrr_tgIO-103" value="DelayFactor:double" style="text;strokeColor=none;fillColor=none;align=left;verticalAlign=top;spacingLeft=4;spacingRight=4;overflow=hidden;rotatable=0;points=[[0,0.5],[1,0.5]];portConstraint=eastwest;" parent="dZb9Hb1LmjK9rrr_tgIO-36" vertex="1">
                    <mxGeometry y="270" width="140" height="26" as="geometry"/>
                </mxCell>
                <mxCell id="dZb9Hb1LmjK9rrr_tgIO-104" value="DamageFactor:double" style="text;strokeColor=none;fillColor=none;align=left;verticalAlign=top;spacingLeft=4;spacingRight=4;overflow=hidden;rotatable=0;points=[[0,0.5],[1,0.5]];portConstraint=eastwest;" parent="dZb9Hb1LmjK9rrr_tgIO-36" vertex="1">
                    <mxGeometry y="296" width="140" height="26" as="geometry"/>
                </mxCell>
                <mxCell id="dZb9Hb1LmjK9rrr_tgIO-105" value="HealtState:string" style="text;strokeColor=none;fillColor=none;align=left;verticalAlign=top;spacingLeft=4;spacingRight=4;overflow=hidden;rotatable=0;points=[[0,0.5],[1,0.5]];portConstraint=eastwest;" parent="dZb9Hb1LmjK9rrr_tgIO-36" vertex="1">
                    <mxGeometry y="322" width="140" height="26" as="geometry"/>
                </mxCell>
            </root>
        </mxGraphModel>
    </diagram>
</mxfile>